<svg xmlns="http://www.w3.org/2000/svg" viewBox="0 0 120 160">
  <!-- Kit — the Kyty mascot (static mark for favicon / nav) -->
  <path fill="#f4f4f5" d="M32 46 L26 18 L52 36 Q60 32 68 36 L94 18 L88 46 Q100 56 100 72 Q100 100 72 106 Q60 109 48 106 Q20 100 20 72 Q20 56 32 46 Z"/>
  <path fill="#f4f4f5" d="M30 112 Q18 128 24 143 Q28 152 40 154 L42 154 Q45 159 52 159 Q58 159 60 154 Q62 159 68 159 Q75 159 78 154 L80 154 Q92 152 96 143 Q102 128 90 112 Q76 120 60 120 Q44 120 30 112 Z"/>
  <path stroke="#f4f4f5" stroke-width="7" stroke-linecap="round" fill="none" d="M95 138 Q115 135 113 116 Q112 107 103 105"/>
  <path fill="#f4f4f5" d="M56 82 L64 82 L60 87 Z"/>
  <path stroke="#f4f4f5" stroke-width="2.4" stroke-linecap="round" fill="none" d="M60 88 Q59 93 54 93.5 M60 88 Q61 93 66 93.5"/>
  <path stroke="#f4f4f5" stroke-width="2" stroke-linecap="round" fill="none" opacity="0.85" d="M14 70 L34 73 M15 82 L34 79.5 M106 70 L86 73 M105 82 L86 79.5"/>
  <path stroke="#6b9dff" stroke-width="3" stroke-linecap="round" fill="none" d="M40 106 Q60 114 80 106"/>
  <circle cx="60" cy="116" r="3.5" fill="#6b9dff"/>
  <rect x="44" y="62" width="10" height="17" rx="5" fill="#6b9dff"/>
  <rect x="66" y="62" width="10" height="17" rx="5" fill="#6b9dff"/>
</svg>
